<?xml version="1.0" encoding="utf-8"?>
<!-- Generator: Adobe Illustrator 24.2.1, SVG Export Plug-In . SVG Version: 6.00 Build 0)  -->
<svg version="1.1" id="Livello_1" xmlns="http://www.w3.org/2000/svg" xmlns:xlink="http://www.w3.org/1999/xlink" x="0px" y="0px"
	 viewBox="0 0 40 40" style="enable-background:new 0 0 40 40;" xml:space="preserve">
<style type="text/css">
	.st0{fill:none;stroke:#0069FF;stroke-width:1.5;stroke-linecap:round;stroke-linejoin:round;}
</style>
<path class="st0" d="M11.2,18.6l4.2,5.9c0.2,0.2,0.3,0.5,0.7,0.5c0.2,0.2,0.5,0.2,0.8,0.2c0.3,0,0.5,0,0.8-0.2
	c0.3-0.2,0.5-0.3,0.7-0.5L31.6,7.8"/>
<path class="st0" d="M4.8,1.1C4.2,1.1,3.5,1.4,3,1.7C2.5,2.2,2.3,2.9,2.3,3.6v15.2c0,8.1,12.1,17.2,16.3,19.9
	c0.3,0.3,0.8,0.3,1.3,0.3s1-0.2,1.3-0.3c4.2-2.7,16.3-11.6,16.3-19.9V3.6c0-0.3,0-0.7-0.2-1c-0.2-0.3-0.3-0.5-0.5-0.8
	c-0.2-0.2-0.5-0.3-0.8-0.5s-0.7-0.2-1-0.2H4.8z"/>
</svg>
