<?xml version="1.0" encoding="utf-8"?>
<!-- Generator: Adobe Illustrator 24.2.1, SVG Export Plug-In . SVG Version: 6.00 Build 0)  -->
<svg version="1.1" id="Livello_1" xmlns="http://www.w3.org/2000/svg" xmlns:xlink="http://www.w3.org/1999/xlink" x="0px" y="0px"
	 viewBox="0 0 40 40" style="enable-background:new 0 0 40 40;" xml:space="preserve">
<style type="text/css">
	.st0{fill:none;stroke:#0069FF;stroke-width:1.5;stroke-linecap:round;stroke-linejoin:round;}
</style>
<path class="st0" d="M7.5,29.9H6.2c-1.3,0-2.7-0.5-3.5-1.5c-1-1-1.5-2.2-1.5-3.5v-5c0-1.3,0.5-2.7,1.5-3.5c1-1,2.2-1.5,3.5-1.5h1.3
	c0.3,0,0.7,0.2,0.8,0.3c0.2,0.2,0.3,0.5,0.3,0.8v12.5c0,0.3-0.2,0.7-0.3,0.8C8.2,29.7,7.9,29.9,7.5,29.9z"/>
<path class="st0" d="M33.8,29.9h-1.3c-0.3,0-0.7-0.2-0.8-0.3c-0.2-0.2-0.3-0.5-0.3-0.8V16.3c0-0.3,0.2-0.7,0.3-0.8
	c0.2-0.2,0.5-0.3,0.8-0.3h1.3c1.3,0,2.7,0.5,3.5,1.5c1,1,1.5,2.2,1.5,3.5v5c0,1.3-0.5,2.7-1.5,3.5C36.3,29.4,34.9,29.9,33.8,29.9z"
	/>
<path class="st0" d="M6.4,14.9c0-3.7,1.5-7.1,4-9.6s6-4,9.6-4l0,0c3.7,0,7.1,1.5,9.6,4s4,6,4,9.6"/>
<path class="st0" d="M25,36.2h3.8c1.3,0,2.7-0.5,3.5-1.5c1-1,1.5-2.2,1.5-3.5v-1.3"/>
<path class="st0" d="M22.5,38.7H20c-0.7,0-1.3-0.3-1.8-0.7c-0.5-0.3-0.7-1.2-0.7-1.8c0-0.7,0.3-1.3,0.7-1.8c0.3-0.5,1.2-0.7,1.8-0.7
	h2.5c0.7,0,1.3,0.3,1.8,0.7c0.5,0.3,0.7,1.2,0.7,1.8c0,0.7-0.3,1.3-0.7,1.8C24,38.5,23.2,38.7,22.5,38.7z"/>
<path class="st0" d="M15,25.6c1.3,1.2,3.2,2,5,2s3.7-0.7,5-2"/>
<path class="st0" d="M15,16.6v2.2"/>
<path class="st0" d="M25,16.6v2.2"/>
</svg>
