<?xml version="1.0" encoding="utf-8"?>
<!-- Generator: Adobe Illustrator 24.2.1, SVG Export Plug-In . SVG Version: 6.00 Build 0)  -->
<svg version="1.1" id="Livello_1" xmlns="http://www.w3.org/2000/svg" xmlns:xlink="http://www.w3.org/1999/xlink" x="0px" y="0px"
	 viewBox="0 0 40 40" style="enable-background:new 0 0 40 40;" xml:space="preserve">
<style type="text/css">
	.st0{clip-path:url(#SVGID_2_);}
	.st1{fill:none;stroke:#0069FF;stroke-width:1.5;stroke-linecap:round;stroke-linejoin:round;}
</style>
<g>
	<g>
		<defs>
			<rect id="SVGID_1_" x="1.2" y="1.2" width="37.6" height="37.6"/>
		</defs>
		<clipPath id="SVGID_2_">
			<use xlink:href="#SVGID_1_"  style="overflow:visible;"/>
		</clipPath>
		<g class="st0">
			<path class="st1" d="M36.1,11.9h-18c-0.9,0-1.6,0.6-1.6,1.6v22.7c0,0.9,0.6,1.6,1.6,1.6h18c0.9,0,1.6-0.6,1.6-1.6V13.4
				C37.7,12.5,36.9,11.9,36.1,11.9z"/>
			<path class="st1" d="M16.6,33h-4.7c-0.6,0-1.3-0.3-1.7-0.6c-0.5-0.5-0.6-1.1-0.6-1.7V9.5c0-0.6,0.3-1.3,0.6-1.7
				c0.5-0.5,1.1-0.6,1.7-0.6h16.4c0.6,0,1.3,0.3,1.7,0.6c0.5,0.5,0.6,1.1,0.6,1.7v2.3"/>
			<path class="st1" d="M9.5,28.3H4.8c-0.6,0-1.3-0.3-1.7-0.6c-0.5-0.5-0.6-1.1-0.6-1.7V4.8c0-0.6,0.3-1.3,0.6-1.7
				c0.5-0.5,1.1-0.6,1.7-0.6h16.4c0.6,0,1.3,0.3,1.7,0.6c0.5,0.5,0.6,1.1,0.6,1.7v2.3"/>
			<path class="st1" d="M28.3,18.9H33"/>
			<path class="st1" d="M21.3,17.7l1.3,1.3l2.3-2.3"/>
			<path class="st1" d="M28.3,25.9H33"/>
			<path class="st1" d="M21.3,24.7l1.3,1.3l2.3-2.3"/>
			<path class="st1" d="M28.3,33H33"/>
			<path class="st1" d="M21.3,31.7l1.3,1.3l2.3-2.3"/>
		</g>
	</g>
</g>
</svg>
